<?xml version="1.0" encoding="UTF-8" standalone="no"?>
<!-- Generator: Adobe Illustrator 17.0.1, SVG Export Plug-In . SVG Version: 6.00 Build 0)  -->

<svg
   xmlns:dc="http://purl.org/dc/elements/1.1/"
   xmlns:cc="http://creativecommons.org/ns#"
   xmlns:rdf="http://www.w3.org/1999/02/22-rdf-syntax-ns#"
   xmlns:svg="http://www.w3.org/2000/svg"
   xmlns="http://www.w3.org/2000/svg"
   xmlns:sodipodi="http://sodipodi.sourceforge.net/DTD/sodipodi-0.dtd"
   xmlns:inkscape="http://www.inkscape.org/namespaces/inkscape"
   version="1.1"
   x="0px"
   y="0px"
   width="14px"
   height="29px"
   viewBox="0 0 14 29"
   enable-background="new 0 0 14 29"
   xml:space="preserve"
   id="svg3375"
   inkscape:version="0.91 r13725"
   sodipodi:docname="save-icon.svg"><metadata
     id="metadata3393"><rdf:RDF><cc:Work
         rdf:about=""><dc:format>image/svg+xml</dc:format><dc:type
           rdf:resource="http://purl.org/dc/dcmitype/StillImage" /><dc:title /></cc:Work></rdf:RDF></metadata><defs
     id="defs3391" /><sodipodi:namedview
     pagecolor="#ffffff"
     bordercolor="#666666"
     borderopacity="1"
     objecttolerance="10"
     gridtolerance="10"
     guidetolerance="10"
     inkscape:pageopacity="0"
     inkscape:pageshadow="2"
     inkscape:window-width="3121"
     inkscape:window-height="1758"
     id="namedview3389"
     showgrid="false"
     inkscape:snap-to-guides="true"
     inkscape:snap-page="true"
     inkscape:zoom="64"
     inkscape:cx="20.276954"
     inkscape:cy="6.641738"
     inkscape:window-x="79"
     inkscape:window-y="42"
     inkscape:window-maximized="1"
     inkscape:current-layer="svg3375" /><g
     id="Rectangle_1_1_"
     enable-background="new    "><g
       id="Rectangle_1"><g
         id="g3385"><path
           d="M 5.5,0.75 5.5,5 3.5,5 7,9.5 10.5,5 8.5,5 8.5,3 11,3 11,11 3,11 3,0.75 2.25,0 0.75,0 0,0.75 0,13.25 0.75,14 13.25,14 14,13.25 14,0.75 13.25,0 l -7,0 z"
           id="path3387"
           inkscape:connector-curvature="0"
           style="clip-rule:evenodd;fill:#00719e;fill-rule:evenodd"
           sodipodi:nodetypes="cccccccccccccccccccccc" /></g></g></g><g
     enable-background="new    "
     id="g3395"
     transform="translate(0.03562342,13.928753)"><g
       id="g3397"><g
         id="g3399" /></g></g><g
     enable-background="new    "
     id="g3390"
     transform="translate(0,15)"><g
       id="g3392"><g
         id="g3394"><path
           sodipodi:nodetypes="cccccccccccccccccccccc"
           style="clip-rule:evenodd;fill:#019aca;fill-rule:evenodd"
           inkscape:connector-curvature="0"
           id="path3396"
           d="M 5.5,0.75 5.5,5 3.5,5 7,9.5 10.5,5 8.5,5 8.5,3 11,3 11,11 3,11 3,0.75 2.25,0 0.75,0 0,0.75 0,13.25 0.75,14 13.25,14 14,13.25 14,0.75 13.25,0 l -7,0 z" /></g></g></g></svg>